<?xml version="1.0" standalone="no"?>
<!DOCTYPE svg PUBLIC "-//W3C//DTD SVG 20010904//EN"
 "http://www.w3.org/TR/2001/REC-SVG-20010904/DTD/svg10.dtd">
<svg version="1.0" xmlns="http://www.w3.org/2000/svg"
 width="1024.000000pt" height="1024.000000pt" viewBox="0 0 1024.000000 1024.000000"
 preserveAspectRatio="xMidYMid meet">

<g transform="translate(0.000000,1024.000000) scale(0.100000,-0.100000)"
fill="#000000" stroke="none">
<path d="M1831 7496 c-12 -14 2 -35 328 -501 61 -88 111 -169 111 -182 0 -21
-34 -132 -170 -548 -32 -99 -91 -281 -130 -405 -39 -124 -98 -308 -130 -410
-66 -208 -167 -529 -210 -665 -30 -99 -236 -750 -331 -1046 -32 -102 -59 -195
-59 -207 0 -14 8 -23 23 -26 22 -5 1401 -14 2535 -18 502 -1 595 1 607 13 7 8
70 174 138 369 178 508 172 487 157 505 -11 13 -135 15 -1030 15 -802 0 -1020
3 -1028 13 -12 15 196 643 218 657 9 6 346 10 831 10 641 0 819 3 826 13 6 6
17 32 26 57 9 25 51 142 92 260 42 118 96 270 121 337 48 134 52 158 28 167
-9 3 -374 6 -812 6 -438 0 -803 4 -811 9 -19 12 169 567 202 595 21 18 53 18
978 11 848 -7 957 -6 970 8 9 8 39 84 69 168 29 85 98 280 153 434 121 341
122 342 106 361 -17 21 -3790 21 -3808 0z"/>
<path d="M6118 7498 c-18 -15 -30 -47 -173 -463 -115 -334 -343 -997 -497
-1440 -55 -159 -144 -418 -198 -575 -54 -157 -142 -411 -195 -565 -53 -154
-141 -408 -195 -565 -54 -157 -121 -352 -150 -433 l-53 -148 -296 -206 c-1024
-713 -1112 -775 -1106 -781 4 -5 174 62 630 248 132 54 436 178 675 275 239
97 503 205 585 240 83 34 274 113 425 175 151 62 282 120 291 129 9 9 31 57
49 106 41 116 156 443 213 610 25 72 93 265 151 429 58 165 106 300 106 302 0
1 7 10 16 18 14 14 101 16 807 16 436 0 802 3 815 6 18 5 66 94 249 459 195
389 225 456 214 469 -12 14 -104 16 -911 16 -706 0 -900 3 -907 13 -7 8 16 87
78 262 131 371 140 395 156 410 12 13 159 15 1063 15 l1049 0 25 23 c13 12
108 186 211 387 258 506 276 545 269 563 -6 16 -135 17 -1693 17 -1335 0
-1691 -3 -1703 -12z"/>
</g>
</svg>
